<?xml version="1.0" encoding="utf-8"?>
<!-- Generator: Adobe Illustrator 23.0.4, SVG Export Plug-In . SVG Version: 6.00 Build 0)  -->
<svg version="1.1" id="Layer_1" xmlns="http://www.w3.org/2000/svg" xmlns:xlink="http://www.w3.org/1999/xlink" x="0px" y="0px"
	 viewBox="0 0 300 300" style="enable-background:new 0 0 300 300;" xml:space="preserve">
<g transform="translate(0.000000,300.000000) scale(0.100000,-0.100000)">
	<path d="M2401.9,2849c-4-9-2-21,4-27c15-15,44-1,40,19C2441.9,2864,2409.9,2870,2401.9,2849z"/>
	<path d="M2845.9,2824c-55-16-189-95-305-179c-223-160-233-173-150-201c37-13,42-19,45-49c12-121-341-565-835-1051
		c-235-232-337-326-503-460c-283-229-429-291-430-184c0,30-24,58-44,51c-22-9-191-239-266-362c-95-158-120-243-78-269
		c51-31,287,105,566,328c271,216,518,441,857,780c674,674,1184,1314,1230,1542C2942.9,2823,2909.9,2843,2845.9,2824z"/>
	<path d="M2146.9,2765c-64-65-20-171,71-171c33,0,48,6,71,29c64,65,20,171-71,171C2184.9,2794,2169.9,2788,2146.9,2765z"/>
	<path d="M2528.9,2107l-31-38v-503v-503l25-23c44-41,34-46-90-46c-122,0-135,6-90,42l25,19v245v244l-167-1h-168l-199-205l-198-205
		l5-42c4-27,13-47,26-56c12-7,21-20,21-27c0-11-21-14-97-14l-98-1l-120-110c-66-61-182-165-258-232c-121-106-135-121-120-132
		c37-24,150-67,242-92c128-34,352-43,486-20c469,82,834,422,956,892c21,79,24,113,24,275s-3,196-24,275c-23,91-81,243-106,277
		C2560.9,2144,2558.9,2143,2528.9,2107z"/>
	<path d="M2249.9,1783l-113-129h116h115v130c0,72-1,130-2,129C2363.9,1913,2311.9,1854,2249.9,1783z"/>
	<path d="M1637.9,1472v-72l70,69c39,38,70,71,70,72c0,2-31,3-70,3h-70V1472z"/>
	<path d="M944.9,306c-22-25-21-75,1-95c25-22,75-21,95,1c22,25,21,75-1,95C1014.9,329,964.9,328,944.9,306z"/>
	<path d="M1647.9,1655.7c0,149.5,0,290.7,0,431.9c0,16.6,16.7,29.1,25.1,45.7c8.4,12.5,16.7,20.8,29.3,37.4c-83.6,0-158.9,0-238.4,0
		c4.2-12.5,4.2-24.9,12.5-29.1c37.6-16.6,41.8-45.7,41.8-78.9c0-249.2,0-502.5,0-751.7c0-8.3-4.2-20.8-16.7-33.2
		c12.5,149.5-25.1,269.9-179.8,328.1c16.7,12.5,20.9,20.8,29.3,24.9c104.5,78.9,142.2,182.7,104.5,311.5
		c-29.3,103.8-125.4,182.7-246.7,186.9c-217.4,8.3-434.9,8.3-648.2,12.5c-20.9,0-37.6,0-66.9,0c12.5,24.9,20.9,41.5,29.3,54
		c405.6,656.2,1342.3,751.7,1873.4,191c25.1-24.9,33.5-49.8,8.4-78.9c-108.7-149.5-217.4-299-330.4-444.4
		c-50.2-62.3-104.5-120.4-158.9-178.6c-16.7-16.6-46-29.1-66.9-29.1C1785.9,1655.7,1719,1655.7,1647.9,1655.7z"/>
	<path d="M937,1136.6c-83.6,0-163.1,0-246.7,0c-33.5,0-46,8.3-46,41.5c0,116.3,0,228.4,0,344.7c0,33.2,12.5,41.5,46,41.5
		c154.7,0,309.4,0,464.2,0c171.4-4.2,271.8-128.7,225.8-282.4c-25.1-87.2-96.2-137.1-209.1-141.2c-4.2,0-8.4,0-16.7,0
		C1087.5,1136.6,1012.3,1136.6,937,1136.6L937,1136.6z"/>
	<path d="M924.4,1664c-79.5,0-158.9,0-234.2,0c-29.3,0-41.8,12.5-41.8,41.5c0,99.7,0,199.3,0,299c0,12.5,20.9,37.4,33.5,37.4
		c175.6,0,351.3,0,522.7-8.3c100.4-4.2,158.9-83.1,163.1-178.6c0-95.5-50.2-162-154.7-174.4C1116.8,1668.2,1020.6,1668.2,924.4,1664
		C924.4,1659.9,924.4,1659.9,924.4,1664z"/>
	<path d="M489.5,1028.6c-60.5,84.8-87.8,191-112.9,294.9c-62.9,240.9-29.3,519.1,83.6,760c4.2,12.5,12.5,20.8,29.3,49.8
		c20.9-24.9,37.6-45.7,46-66.4c8.4-16.6,4.2-37.4,4.2-58.1c0-245,0-490.1,0-730.9C539.7,1190.6,556.5,1099.2,489.5,1028.6
		L489.5,1028.6z"/>
	<path d="M489.5,1028.6c20.9,0,41.8,4.2,62.7,4.2c184,0,368,0,552,0c46,0,92,4.2,142.2-4.2c-62.7-54-125.4-108-188.2-157.8
		C974.6,808.5,886.8,750.4,799,692.2c-12.5-8.3-46-8.3-54.4,0c-100.4,91.4-192.4,195.2-255.1,315.6
		C485.4,1020.3,489.5,1024.5,489.5,1028.6L489.5,1028.6z"/>
</g>
</svg>
